<svg height="496pt" viewBox="-80 0 496 496" width="496pt" xmlns="http://www.w3.org/2000/svg"><path d="m112 296-70.121094 21.574219c-20.136718 6.195312-33.878906 24.800781-33.878906 45.875v124.550781h320v-124.550781c0-21.074219-13.742188-39.679688-33.878906-45.882813l-70.121094-21.566406" fill="#b8cbd9"/><path d="m262.121094 317.574219-70.121094-21.574219h-80l-70.121094 21.574219c-20.136718 6.195312-33.878906 24.800781-33.878906 45.875v124.550781h288v-124.550781c0-21.074219-13.742188-39.679688-33.878906-45.875zm0 0" fill="#e8eff4"/><path d="m40 488v-112h256v112" fill="#8892a0"/><path d="m192 432c0 13.253906-10.746094 24-24 24s-24-10.746094-24-24 10.746094-24 24-24 24 10.746094 24 24zm0 0" fill="#fff"/><path d="m296 432h32v56h-32zm0 0" fill="#c18e59"/><path d="m8 432h32v56h-32zm0 0" fill="#c18e59"/><path d="m112 296c0 26.511719 21.488281 48 48 48h16c26.511719 0 48-21.488281 48-48" fill="#976947"/><path d="m80 208h-16c-17.671875 0-32-14.328125-32-32s14.328125-32 32-32h16" fill="#976947"/><path d="m256 208h16c17.671875 0 32-14.328125 32-32s-14.328125-32-32-32h-16" fill="#c18e59"/><path d="m272 80v128c0 57.441406-46.558594 104-104 104s-104-46.558594-104-104v-128" fill="#976947"/><path d="m156 311.257812c51.777344-5.960937 92-49.882812 92-103.257812v-128h-184v128c0 53.375 40.222656 97.296875 92 103.257812zm0 0" fill="#c18e59"/><path d="m328 80c0-20.238281-15.078125-36.792969-34.59375-39.457031-6.4375-18.917969-24.308594-32.542969-45.40625-32.542969-15.558594 0-29.351562 7.441406-38.121094 18.910156-10.253906-11.574218-25.191406-18.910156-41.878906-18.910156s-31.625 7.335938-41.878906 18.910156c-8.769532-11.46875-22.5625-18.910156-38.121094-18.910156-21.097656 0-38.96875 13.625-45.40625 32.542969-19.515625 2.664062-34.59375 19.21875-34.59375 39.457031 0 9.703125 3.59375 18.480469 9.34375 25.40625-5.777344 5.792969-9.34375 13.777344-9.34375 22.59375 0 17.671875 14.328125 32 32 32s32-14.328125 32-32c0-5.015625-1.257812-9.695312-3.3125-13.921875 4.578125-2.78125 8.550781-6.40625 11.679688-10.742187 2.488281.398437 5.023437.664062 7.632812.664062 12.113281 0 23.152344-4.519531 31.601562-11.929688 9.695313 16.683594 27.710938 27.929688 48.398438 27.929688s38.703125-11.246094 48.398438-27.929688c8.449218 7.410157 19.488281 11.929688 31.601562 11.929688 2.609375 0 5.144531-.265625 7.632812-.664062 3.128907 4.328124 7.101563 7.960937 11.679688 10.742187-2.054688 4.226563-3.3125 8.90625-3.3125 13.921875 0 17.671875 14.328125 32 32 32s32-14.328125 32-32c0-8.816406-3.566406-16.800781-9.34375-22.59375 5.75-6.925781 9.34375-15.703125 9.34375-25.40625zm0 0" fill="#695b52"/><path d="m168 320c-61.761719 0-112-50.238281-112-112v-58.839844h16v58.839844c0 52.9375 43.0625 96 96 96s96-43.0625 96-96v-58.878906h16v58.878906c0 61.761719-50.238281 112-112 112zm0 0"/><path d="m64 216c-22.054688 0-40-17.945312-40-40 0-7.03125 1.847656-13.953125 5.351562-20l13.847657 8.007812c-2.085938 3.625-3.199219 7.777344-3.199219 11.992188 0 13.230469 10.769531 24 24 24zm0 0"/><path d="m272 216v-16c13.230469 0 24-10.769531 24-24 0-4.214844-1.113281-8.367188-3.207031-12l13.847656-8.007812c3.511719 6.054687 5.359375 12.976562 5.359375 20.007812 0 22.054688-17.945312 40-40 40zm0 0"/><path d="m184 152h56v16h-56zm0 0"/><path d="m96 152h56v16h-56zm0 0"/><path d="m160 192h16v32h-16zm0 0"/><path d="m132 200c-6.617188 0-12-5.382812-12-12s5.382812-12 12-12 12 5.382812 12 12-5.382812 12-12 12zm0-16c-2.207031 0-4 1.792969-4 4s1.792969 4 4 4 4-1.792969 4-4-1.792969-4-4-4zm0 0"/><path d="m204 200c-6.617188 0-12-5.382812-12-12s5.382812-12 12-12 12 5.382812 12 12-5.382812 12-12 12zm0-16c-2.207031 0-4 1.792969-4 4s1.792969 4 4 4 4-1.792969 4-4-1.792969-4-4-4zm0 0"/><path d="m176 352h-16c-30.878906 0-56-25.128906-56-56h16c0 22.054688 17.945312 40 40 40h16c22.054688 0 40-17.945312 40-40h16c0 30.871094-25.121094 56-56 56zm0 0"/><path d="m296 168c-22.054688 0-40-17.945312-40-40 0-3.710938.535156-7.398438 1.617188-11-1.945313-1.585938-3.753907-3.320312-5.417969-5.175781-1.445313.121093-2.839844.175781-4.199219.175781-10.535156 0-20.808594-2.992188-29.671875-8.550781-12.039063 15.328125-30.625 24.550781-50.328125 24.550781s-38.289062-9.222656-50.328125-24.550781c-8.863281 5.558593-19.136719 8.550781-29.671875 8.550781-1.359375 0-2.753906-.054688-4.199219-.183594-1.664062 1.863282-3.472656 3.589844-5.417969 5.175782 1.082032 3.609374 1.617188 7.296874 1.617188 11.007812 0 22.054688-17.945312 40-40 40s-40-17.945312-40-40c0-8.328125 2.527344-16.273438 7.230469-22.953125-4.75-7.574219-7.230469-16.117187-7.230469-25.046875 0-22.160156 15.496094-41.351562 36.742188-46.488281 8.867187-20.222657 28.90625-33.511719 51.257812-33.511719 14.535156 0 28.152344 5.511719 38.488281 15.367188 11.519531-9.855469 26.230469-15.367188 41.511719-15.367188s29.992188 5.511719 41.511719 15.367188c10.335937-9.855469 23.953125-15.367188 38.488281-15.367188 22.351562 0 42.390625 13.289062 51.257812 33.511719 21.246094 5.136719 36.742188 24.328125 36.742188 46.488281 0 8.929688-2.480469 17.472656-7.230469 25.046875 4.703125 6.679687 7.230469 14.625 7.230469 22.953125 0 22.054688-17.945312 40-40 40zm-40.367188-72.664062c2.542969 0 4.96875 1.207031 6.488282 3.3125 2.488281 3.441406 5.632812 6.335937 9.351562 8.589843 3.527344 2.152344 4.839844 6.632813 3.03125 10.335938-1.664062 3.417969-2.503906 6.921875-2.503906 10.425781 0 13.230469 10.769531 24 24 24s24-10.769531 24-24c0-6.390625-2.488281-12.414062-7.007812-16.945312-2.914063-2.917969-3.128907-7.582032-.496094-10.757813 4.910156-5.914063 7.503906-12.929687 7.503906-20.296875 0-15.824219-11.894531-29.375-27.671875-31.527344-3-.410156-5.511719-2.480468-6.496094-5.34375-5.519531-16.226562-20.726562-27.128906-37.832031-27.128906-12.527344 0-24.105469 5.753906-31.769531 15.769531-1.445313 1.902344-3.671875 3.046875-6.0625 3.140625-2.382813.082032-4.6875-.894531-6.28125-2.6875-9.125-10.3125-22.214844-16.222656-35.886719-16.222656s-26.761719 5.910156-35.886719 16.214844c-1.585937 1.792968-3.929687 2.753906-6.28125 2.6875-2.390625-.085938-4.617187-1.238282-6.0625-3.140625-7.664062-10.007813-19.242187-15.761719-31.769531-15.761719-17.105469 0-32.3125 10.902344-37.832031 27.128906-.976563 2.863282-3.496094 4.933594-6.496094 5.34375-15.777344 2.152344-27.671875 15.703125-27.671875 31.527344 0 7.367188 2.59375 14.382812 7.503906 20.296875 2.640625 3.175781 2.425782 7.832031-.496094 10.757813-4.519531 4.53125-7.007812 10.554687-7.007812 16.945312 0 13.230469 10.769531 24 24 24s24-10.769531 24-24c0-3.503906-.839844-7.007812-2.503906-10.414062-1.808594-3.714844-.496094-8.195313 3.03125-10.339844 3.71875-2.261719 6.863281-5.148438 9.351562-8.589844 1.769532-2.449219 4.753906-3.703125 7.746094-3.207031 2.375.367187 4.464844.550781 6.375.550781 9.664062 0 19.007812-3.527344 26.328125-9.945312 1.792969-1.574219 4.207031-2.269532 6.566406-1.878907 2.363281.382813 4.425781 1.808594 5.625 3.871094 8.578125 14.777344 24.480469 23.953125 41.480469 23.953125s32.902344-9.175781 41.488281-23.953125c1.199219-2.0625 3.265625-3.488281 5.625-3.871094 2.351563-.382812 4.773438.304688 6.566407 1.878907 7.3125 6.417968 16.65625 9.945312 26.320312 9.945312 1.910156 0 4-.183594 6.367188-.558594.425781-.074218.847656-.105468 1.265624-.105468zm0 0"/><path d="m296 424h32v16h-32zm0 0"/><path d="m8 424h32v16h-32zm0 0"/><path d="m328 496h-320c-4.414062 0-8-3.574219-8-8v-124.542969c0-24.738281 15.886719-46.25 39.527344-53.527343l70.121094-21.570313 4.703124 15.296875-70.121093 21.566406c-16.886719 5.191406-28.230469 20.5625-28.230469 38.234375v116.542969h304v-116.542969c0-17.671875-11.34375-33.042969-28.238281-38.234375l-70.113281-21.566406 4.703124-15.296875 70.121094 21.570313c23.640625 7.269531 39.527344 28.789062 39.527344 53.527343v124.542969c0 4.425781-3.585938 8-8 8zm0 0"/><path d="m304 488h-16v-104h-240v104h-16v-112c0-4.425781 3.585938-8 8-8h256c4.414062 0 8 3.574219 8 8zm0 0"/><path d="m168 288c-30.878906 0-56-25.128906-56-56h16c0 22.054688 17.945312 40 40 40s40-17.945312 40-40h16c0 30.871094-25.121094 56-56 56zm0 0"/><path d="m168 464c-17.648438 0-32-14.351562-32-32s14.351562-32 32-32 32 14.351562 32 32-14.351562 32-32 32zm0-48c-8.824219 0-16 7.175781-16 16s7.175781 16 16 16 16-7.175781 16-16-7.175781-16-16-16zm0 0"/></svg>